<?xml version="1.0" encoding="UTF-8"?>
<svg width="463.23mm" height="112.95mm" version="1.1" viewBox="0 0 463.23 112.95" xmlns="http://www.w3.org/2000/svg" xmlns:cc="http://creativecommons.org/ns#" xmlns:dc="http://purl.org/dc/elements/1.1/" xmlns:rdf="http://www.w3.org/1999/02/22-rdf-syntax-ns#">
 <metadata>
  <rdf:RDF>
   <cc:Work rdf:about="">
    <dc:format>image/svg+xml</dc:format>
    <dc:type rdf:resource="http://purl.org/dc/dcmitype/StillImage"/>
    <dc:title/>
   </cc:Work>
  </rdf:RDF>
 </metadata>
 <ellipse cx="87.882" cy="56.131" rx="83.248" ry="43.995" fill="#fff" fill-rule="evenodd" stroke-width=".26458"/>
 <g transform="translate(-17.813 -56.05)">
  <path d="m58.114 114.5a45.77 43.011 0 0 0-0.04646 1.968 45.77 43.011 0 0 0 45.771 43.009 45.77 43.011 0 0 0 45.768-43.009 45.77 43.011 0 0 0-0.0452-1.968z" fill="#f00"/>
  <path d="m58.114 114.5a45.77 43.011 0 0 1-0.04646-1.968 45.77 43.011 0 0 1 45.771-43.009 45.77 43.011 0 0 1 45.768 43.009 45.77 43.011 0 0 1-0.0452 1.968z" fill="#fff"/>
  <path d="m105.74 57.161a94.835 89.446 0 0 0-87.927 56.586 94.835 89.446 0 0 0 87.517 54.999 94.835 89.446 0 0 0 88.2-56.586 94.835 89.446 0 0 0-87.517-54.999 94.835 89.446 0 0 0-0.27347 0zm-1.9742 13.763a41.881 41.881 0 0 1 0.36685 0 41.881 41.881 0 0 1 41.883 41.883 41.881 41.881 0 0 1-41.883 41.879 41.881 41.881 0 0 1-41.879-41.879 41.881 41.881 0 0 1 41.512-41.883zm33.229 2.2877a82.631 72.181 0 0 1 45.231 39.101 82.631 72.181 0 0 1-45.411 40.235 51.454 51.454 0 0 0 18.772-39.742 51.454 51.454 0 0 0-18.592-39.595zm-68.672 2.6479a51.454 51.454 0 0 0-15.644 36.947 51.454 51.454 0 0 0 16.741 37.981 82.631 72.181 0 0 1-40.302-37.194 82.631 72.181 0 0 1 39.205-37.734zm35.81 14.807a22.137 22.137 0 0 0-22.137 22.14 22.137 22.137 0 0 0 22.137 22.137 22.137 22.137 0 0 0 22.137-22.137 22.137 22.137 0 0 0-2.3678-9.9612l-19.045 11.205 7.917-21.63a22.137 22.137 0 0 0-8.6406-1.7541z" fill="#4d4d4d"/>
 </g>
 <g>
  <path d="m233.69 0.22716q4.316 0 8.121 1.6469 3.8049 1.6469 6.6444 4.4864 2.8395 2.7827 4.4864 6.5876 1.6469 3.8049 1.6469 8.1209 0 4.316-1.6469 8.1209-1.6469 3.8049-4.4864 6.6444-2.8395 2.7827-6.6444 4.4296-3.805 1.6469-8.121 1.6469-4.316 0-8.1209-1.6469-3.8049-1.6469-6.6444-4.4296-2.7827-2.8395-4.4296-6.6444-1.6469-3.8049-1.6469-8.1209 0-4.316 1.6469-8.1209 1.6469-3.8049 4.4296-6.5876 2.8394-2.8395 6.6444-4.4864 3.8049-1.6469 8.1209-1.6469zm0 32.086q2.3284 0 4.3728-0.85184 2.0444-0.90864 3.5778-2.442 1.5333-1.5333 2.3851-3.5778 0.90867-2.0444 0.90867-4.3728 0-2.3284-0.90867-4.3728-0.85185-2.0444-2.3851-3.5778-1.5333-1.5333-3.5778-2.3852-2.0444-0.90864-4.3728-0.90864-2.3284 0-4.3728 0.90864-2.0444 0.85184-3.5778 2.3852t-2.442 3.5778q-0.85185 2.0444-0.85185 4.3728 0 2.3284 0.85185 4.3728 0.90862 2.0444 2.442 3.5778t3.5778 2.442q2.0444 0.85184 4.3728 0.85184z" style="font-variant-caps:normal;font-variant-east-asian:normal;font-variant-ligatures:normal;font-variant-numeric:normal;white-space:pre"/>
  <path d="m281.33 0.11358v9.6542h-8.0074v32.2h-9.5974v-32.2h-7.9506v-9.6542z" style="font-variant-caps:normal;font-variant-east-asian:normal;font-variant-ligatures:normal;font-variant-numeric:normal;white-space:pre"/>
  <path d="m326.31 0h10.052l-12.323 41.968h-9.4839l-5.5086-20.899-4.7704 20.899h-9.5406l-13.857-41.968h10.109l7.7234 23.227 5.2814-23.227h9.4271l6.1333 23.113z" style="font-variant-caps:normal;font-variant-east-asian:normal;font-variant-ligatures:normal;font-variant-numeric:normal;white-space:pre"/>
  <path d="m361.35 41.968-1.6469-5.0543h-13.118l-1.7037 5.0543h-10.165l14.197-41.684h9.0864l13.459 41.684zm-11.471-14.652h6.758l-3.2938-10.109z" style="font-variant-caps:normal;font-variant-east-asian:normal;font-variant-ligatures:normal;font-variant-numeric:normal;white-space:pre"/>
  <path d="m386.91 31.178q-0.7383 0.11358-1.4766 0.17037-0.73825 0.05679-1.5333 0.11358v10.506h-9.5975v-41.57h9.5975q3.5778 0.056788 6.7012 1.3062 3.1234 1.2494 5.4518 3.3506 2.3852 2.1012 3.6913 4.8839 1.363 2.7827 1.363 5.9629 0 3.3506-1.4197 6.2469-1.4197 2.8395-3.9753 4.9407l9.1999 14.879h-11.301zm-3.0099-9.3703q1.5333-0.05679 2.8963-0.51111 1.4197-0.51111 2.442-1.3062 1.079-0.79506 1.6469-1.8173 0.62465-1.079 0.62465-2.2716t-0.62465-2.2148q-0.56794-1.0222-1.6469-1.8173-1.0222-0.79506-2.442-1.2494-1.363-0.51111-2.8963-0.5679z" style="font-variant-caps:normal;font-variant-east-asian:normal;font-variant-ligatures:normal;font-variant-numeric:normal;white-space:pre"/>
  <path d="m433.02 0.11358v9.6542h-8.0073v32.2h-9.5975v-32.2h-7.9505v-9.6542z" style="font-variant-caps:normal;font-variant-east-asian:normal;font-variant-ligatures:normal;font-variant-numeric:normal;white-space:pre"/>
  <path d="m463.23 9.8814h-17.15v6.3037h13.913v9.5975h-13.913v6.5876h17.15v9.5975h-26.748v-41.627l26.748-0.056788z" style="font-variant-caps:normal;font-variant-east-asian:normal;font-variant-ligatures:normal;font-variant-numeric:normal;white-space:pre"/>
  <path d="m246.86 112.95h-33.279l17.434-32.37h-15.163v-9.6542l31.234 0.05677-17.434 32.37h17.207z" style="font-variant-caps:normal;font-variant-east-asian:normal;font-variant-ligatures:normal;font-variant-numeric:normal;white-space:pre"/>
  <path d="m265.38 102.16q-0.73825 0.1136-1.4765 0.17037-0.7383 0.0568-1.5333 0.1136v10.506h-9.5975v-41.57h9.5975q3.5778 0.05677 6.7012 1.3062 3.1234 1.2494 5.4518 3.3506 2.3852 2.1012 3.6914 4.8839 1.363 2.7827 1.363 5.9629 0 3.3506-1.4197 6.2469-1.4198 2.8395-3.9753 4.9407l9.2 14.879h-11.301zm-3.0098-9.3703q1.5333-0.05677 2.8963-0.51111 1.4197-0.51111 2.442-1.3062 1.079-0.79506 1.6469-1.8173 0.6247-1.079 0.6247-2.2716 0-1.1926-0.6247-2.2148-0.56788-1.0222-1.6469-1.8173-1.0222-0.79506-2.442-1.2494-1.363-0.51111-2.8963-0.5679z" style="font-variant-caps:normal;font-variant-east-asian:normal;font-variant-ligatures:normal;font-variant-numeric:normal;white-space:pre"/>
  <path d="m305.64 71.214q4.316 0 8.1209 1.6469 3.8049 1.6469 6.6444 4.4864 2.8395 2.8395 4.4864 6.6444 1.6469 3.8049 1.6469 8.1209 0 4.316-1.6469 8.1209-1.6469 3.8049-4.4864 6.6444-2.8395 2.7827-6.6444 4.4296-3.8049 1.6469-8.1209 1.6469t-8.1209-1.6469q-3.8049-1.6469-6.6444-4.4296-2.7827-2.8395-4.4296-6.6444-1.6469-3.8049-1.6469-8.1209 0-4.316 1.6469-8.1209 1.6469-3.8049 4.4296-6.6444 2.8395-2.8395 6.6444-4.4864 3.8049-1.6469 8.1209-1.6469zm0 32.143q2.3284 0 4.3728-0.85185 2.0444-0.90863 3.5777-2.442 1.5333-1.5333 2.3852-3.5778 0.90868-2.0444 0.90868-4.3728t-0.90868-4.3728q-0.85185-2.0444-2.3852-3.5778-1.5333-1.5333-3.5777-2.3852-2.0444-0.90864-4.3728-0.90864-2.3284 0-4.3728 0.90864-2.0444 0.85184-3.5778 2.3852-1.5333 1.5333-2.4419 3.5778-0.85185 2.0444-0.85185 4.3728t0.85185 4.3728q0.90862 2.0444 2.4419 3.5778 1.5333 1.5333 3.5778 2.442 2.0444 0.85185 4.3728 0.85185zm0.28386-45.205h8.5752l-4.6 9.6542h-8.6319z" style="font-variant-caps:normal;font-variant-east-asian:normal;font-variant-ligatures:normal;font-variant-numeric:normal;white-space:pre"/>
  <path d="m337.67 71.101q4.1456 0.22714 7.7802 1.9876 3.6913 1.7605 6.3604 4.6 2.7259 2.8395 4.2592 6.5876 1.5902 3.7481 1.5902 8.0073 0 4.2024-1.5333 7.8938-1.5333 3.6345-4.2592 6.4172-2.6691 2.7827-6.3037 4.4864-3.6345 1.6469-7.8938 1.8741h-9.5974v-41.911h9.5974zm0 32.2q2.2148-0.22714 4.0889-1.1358 1.9308-0.96542 3.2938-2.3852 1.4198-1.4765 2.2148-3.4074 0.79508-1.9309 0.79508-4.0889 0-2.2148-0.79508-4.2024-0.79502-2.0444-2.2148-3.5778-1.4197-1.5901-3.2938-2.5555-1.8741-1.0222-4.0889-1.2494z" style="font-variant-caps:normal;font-variant-east-asian:normal;font-variant-ligatures:normal;font-variant-numeric:normal;white-space:pre"/>
  <path d="m384.69 112.95h-24.817v-41.74h9.5975v32.143h15.22z" style="font-variant-caps:normal;font-variant-east-asian:normal;font-variant-ligatures:normal;font-variant-numeric:normal;white-space:pre"/>
  <path d="m412.46 112.95-1.6469-5.0543h-13.118l-1.7036 5.0543h-10.165l14.197-41.684h9.0864l13.459 41.684zm-11.471-14.652h6.758l-3.2938-10.109z" style="font-variant-caps:normal;font-variant-east-asian:normal;font-variant-ligatures:normal;font-variant-numeric:normal;white-space:pre"/>
  <path d="m231.19 57.631h8.5753l-4.6 9.6542h-8.632z" style="font-variant-caps:normal;font-variant-east-asian:normal;font-variant-ligatures:normal;font-variant-numeric:normal;white-space:pre"/>
  <path d="m377.65 91.741v-8.5753l-9.6542 4.6v8.632z" style="font-variant-caps:normal;font-variant-east-asian:normal;font-variant-ligatures:normal;font-variant-numeric:normal;white-space:pre"/>
 </g>
</svg>
