<?xml version="1.0" standalone="no"?>
<!DOCTYPE svg PUBLIC "-//W3C//DTD SVG 20010904//EN"
 "http://www.w3.org/TR/2001/REC-SVG-20010904/DTD/svg10.dtd">
<svg version="1.0" xmlns="http://www.w3.org/2000/svg"
 width="1328.000000pt" height="1328.000000pt" viewBox="0 0 1328.000000 1328.000000"
 preserveAspectRatio="xMidYMid meet">
<metadata>
Created by potrace 1.11, written by Peter Selinger 2001-2013
</metadata>
<g transform="translate(0.000000,1328.000000) scale(0.100000,-0.100000)"
fill="#000000" stroke="none">
<path d="M6241 10845 c-1 -6 -22 -11 -48 -11 -53 -1 -211 -13 -258 -19 -16 -3
-57 -7 -90 -10 -58 -5 -123 -13 -174 -21 -13 -2 -45 -6 -70 -10 -74 -10 -103
-14 -161 -24 -30 -5 -72 -12 -94 -16 -21 -3 -48 -8 -60 -10 -11 -3 -55 -11
-96 -19 -41 -8 -86 -17 -100 -20 -14 -3 -36 -8 -50 -11 -14 -3 -45 -10 -70
-15 -25 -6 -52 -12 -60 -14 -8 -2 -60 -15 -115 -30 -55 -14 -107 -28 -115 -29
-8 -2 -22 -6 -30 -9 -8 -3 -42 -12 -75 -22 -33 -9 -80 -23 -105 -31 -25 -8
-56 -17 -69 -20 -14 -3 -28 -7 -33 -10 -5 -3 -20 -8 -35 -10 -15 -3 -33 -10
-40 -15 -7 -6 -16 -8 -22 -5 -5 3 -11 1 -13 -4 -2 -6 -16 -13 -31 -16 -24 -4
-244 -83 -327 -117 -14 -6 -27 -11 -30 -12 -3 -1 -18 -7 -35 -14 -31 -12 -37
-15 -117 -50 -26 -12 -50 -21 -53 -21 -5 0 -72 -31 -270 -125 -49 -23 -94 -43
-99 -43 -5 0 -12 -4 -15 -9 -3 -5 -46 -29 -96 -54 -118 -60 -427 -236 -460
-261 -27 -22 -87 -58 -95 -58 -6 0 -10 -4 -10 -10 0 -5 -7 -10 -15 -10 -8 0
-15 -4 -15 -10 0 -5 -7 -10 -15 -10 -8 0 -15 -4 -15 -10 0 -5 -4 -10 -10 -10
-9 0 -170 -109 -202 -138 -10 -8 -18 -11 -18 -6 0 5 -4 4 -8 -2 -4 -5 -25 -23
-47 -39 -22 -17 -42 -32 -45 -35 -3 -3 -21 -17 -40 -30 -19 -12 -39 -28 -45
-34 -5 -6 -28 -24 -50 -41 -60 -44 -65 -48 -91 -72 -14 -13 -28 -23 -33 -23
-4 0 -17 -10 -28 -22 -11 -13 -32 -31 -46 -42 -15 -10 -39 -30 -55 -45 -15
-14 -61 -55 -102 -91 -143 -126 -380 -358 -380 -372 0 -4 -7 -8 -15 -8 -8 0
-15 -3 -15 -8 0 -4 -19 -28 -42 -53 -131 -142 -195 -214 -258 -293 -8 -10 -20
-23 -25 -30 -6 -6 -28 -33 -50 -61 -22 -27 -44 -55 -50 -62 -22 -26 -33 -42
-104 -138 -41 -55 -87 -117 -102 -137 -16 -20 -29 -41 -29 -47 0 -5 -3 -11 -8
-13 -9 -4 -143 -206 -141 -214 0 -4 -3 -10 -8 -13 -9 -6 -152 -239 -166 -271
-4 -8 -17 -31 -29 -50 -28 -46 -196 -378 -230 -455 -15 -33 -41 -91 -57 -128
-30 -67 -30 -68 -14 -110 52 -133 311 -620 404 -760 22 -32 39 -60 39 -63 0
-2 16 -27 35 -54 19 -27 35 -52 35 -56 0 -3 6 -12 13 -19 25 -29 37 -44 37
-49 0 -2 26 -41 57 -86 32 -45 63 -90 68 -99 6 -9 13 -18 16 -21 5 -5 152
-196 179 -233 8 -12 25 -32 38 -46 12 -13 33 -38 45 -53 12 -16 37 -44 55 -63
17 -18 32 -35 32 -38 0 -3 17 -23 38 -45 20 -22 71 -77 112 -123 176 -192 438
-441 630 -599 30 -25 57 -47 60 -50 3 -3 32 -27 65 -53 33 -27 71 -57 85 -68
14 -11 77 -58 140 -104 63 -47 120 -88 125 -92 6 -5 44 -30 85 -58 41 -27 77
-52 80 -56 3 -3 21 -14 40 -24 19 -10 37 -21 40 -25 4 -6 133 -87 195 -123 11
-6 40 -24 65 -38 45 -27 62 -37 175 -99 33 -18 64 -36 70 -41 5 -5 17 -9 27
-9 10 0 18 -3 18 -7 0 -5 28 -21 63 -38 34 -16 70 -36 81 -45 10 -8 19 -14 20
-12 0 2 46 -18 101 -43 107 -50 171 -79 223 -101 17 -8 48 -21 67 -29 173 -77
565 -221 565 -208 0 3 6 1 13 -5 6 -5 32 -16 57 -23 56 -16 52 -15 70 -22 15
-7 292 -86 320 -92 8 -2 35 -8 60 -15 25 -7 54 -14 65 -16 44 -8 62 -13 120
-28 33 -8 74 -17 90 -20 17 -3 53 -10 80 -16 28 -6 61 -13 75 -15 29 -6 129
-24 168 -30 15 -3 43 -7 62 -10 111 -17 169 -26 205 -31 22 -2 51 -6 65 -8 14
-2 54 -7 90 -10 36 -4 90 -9 120 -13 180 -19 358 -26 700 -27 342 -1 548 7
735 29 28 3 73 7 100 10 28 3 66 7 85 10 62 7 124 16 160 21 19 2 55 7 80 10
25 3 52 8 60 10 8 3 35 8 60 11 50 6 75 11 75 13 0 1 11 3 25 5 30 3 68 10
163 31 39 8 83 18 96 20 13 3 51 12 85 20 34 8 72 17 86 20 14 3 43 10 65 16
22 5 47 12 55 13 8 2 43 12 78 23 34 11 62 18 62 16 0 -1 25 6 55 16 30 10 55
17 55 14 0 -3 9 0 21 6 11 6 28 13 37 15 54 11 498 167 557 195 11 5 27 11 35
12 8 2 17 5 20 8 3 3 32 16 65 29 60 24 81 33 245 108 140 63 418 205 535 274
17 10 54 30 83 45 28 15 52 31 52 36 0 4 5 8 12 8 12 0 234 136 256 157 6 6
21 15 32 18 11 3 20 10 20 15 0 5 10 12 22 16 12 3 33 17 47 30 14 13 32 24
39 24 7 0 15 7 18 15 4 8 11 15 18 15 6 0 24 11 39 25 15 14 27 22 27 18 0 -4
4 -3 8 2 4 6 43 37 87 70 71 52 110 83 217 168 57 45 149 121 183 152 12 11
53 47 90 80 38 33 105 95 149 138 45 43 95 91 111 106 46 43 213 218 285 300
36 41 70 79 75 85 31 34 168 200 210 256 28 36 53 67 58 68 4 2 7 10 7 18 0 8
4 14 9 14 5 0 20 17 32 37 13 21 29 44 37 53 31 35 82 110 82 119 0 6 3 11 8
11 4 0 25 28 47 63 22 34 42 64 45 67 10 9 63 92 77 120 4 8 11 20 15 25 14
17 58 86 58 90 0 3 17 33 38 67 21 35 41 70 45 78 4 8 20 38 36 65 46 80 206
401 260 523 l50 112 -20 48 c-29 66 -41 96 -39 101 1 2 -2 7 -7 10 -4 3 -38
67 -75 141 -63 127 -116 227 -157 295 -10 17 -30 53 -45 80 -16 28 -37 62 -47
77 -11 14 -19 31 -19 37 0 6 -4 11 -10 11 -5 0 -10 7 -10 15 0 7 -8 18 -17 24
-10 5 -16 12 -13 15 6 6 -42 85 -52 86 -5 0 -8 5 -8 10 0 11 -66 109 -150 227
-25 33 -52 71 -60 83 -8 12 -19 28 -25 34 -5 6 -39 49 -75 96 -35 47 -67 87
-70 90 -3 3 -34 41 -70 85 -35 44 -69 85 -75 91 -5 6 -37 41 -70 79 -124 141
-321 342 -471 481 -92 85 -126 115 -213 190 -19 16 -39 34 -45 40 -9 8 -292
232 -331 262 -88 66 -198 142 -205 142 -6 0 -10 4 -10 9 0 5 -8 12 -18 15 -10
4 -27 14 -38 24 -11 10 -42 31 -69 47 -28 16 -63 39 -80 51 -41 30 -312 191
-410 245 -44 23 -111 60 -150 81 -38 21 -77 41 -85 44 -8 4 -60 28 -115 54
-105 51 -372 172 -385 174 -8 2 -72 27 -107 42 -17 8 -33 14 -36 14 -3 0 -18
5 -34 12 -15 6 -30 12 -33 13 -3 1 -12 5 -20 8 -22 10 -213 78 -225 81 -12 2
-114 35 -135 43 -8 3 -19 7 -25 8 -5 2 -41 12 -80 25 -38 12 -77 23 -85 25 -8
2 -42 12 -75 21 -33 9 -64 17 -70 19 -5 1 -17 4 -25 7 -14 5 -99 26 -130 33
-8 2 -54 12 -102 24 -48 11 -100 23 -115 25 -23 5 -66 13 -153 31 -14 3 -38 8
-55 10 -16 3 -41 7 -55 10 -14 3 -38 7 -55 10 -16 3 -43 7 -60 10 -16 3 -48 7
-70 10 -22 3 -51 7 -65 10 -25 5 -60 9 -160 20 -30 3 -67 8 -83 11 -15 2 -51
6 -80 9 -116 9 -234 18 -269 19 -20 1 -40 5 -44 8 -4 4 -15 3 -25 -2 -10 -6
-20 -6 -23 -1 -7 11 -743 11 -773 0 -14 -5 -23 -4 -27 4 -2 7 -5 7 -5 2z"/>
</g>
</svg>
